# xmcd
#
# Track frame offsets:
#	150
#	15638
#	25253
#	38671
#	49134
#	65844
#	77042
#	91367
#	102977
#	115300
#	130600
#
# Disc length: 1898 seconds
#
# Revision: 1
# Processed by: cddbd v1.5.2PL0 Copyright (c) Steve Scherf et al.
# Submitted via: audiograbber 1.83.01
#
DISCID=8a07680b
DTITLE=Marty Robbins - My Woman, My Woman, My Wife
DYEAR=1970
DGENRE=Country
TTITLE0=My Woman, My Woman, My Wife
TTITLE1=Can't Help Falling In Love
TTITLE2=Love Me Tender
TTITLE3=I've Got A Woman's Love
TTITLE4=Three Little Words
TTITLE5=Maria (If I Could)
TTITLE6=The Master's Touch
TTITLE7=My Happy Heart Sings
TTITLE8=Without You To Love
TTITLE9=A Very Special Way
TTITLE10=Martha Ellen Jenkins
EXTD=
EXTT0=
EXTT1=
EXTT2=
EXTT3=
EXTT4=
EXTT5=
EXTT6=
EXTT7=
EXTT8=
EXTT9=
EXTT10=
PLAYORDER=
